<?xml version="1.0" standalone="no"?>
<!DOCTYPE svg PUBLIC "-//W3C//DTD SVG 20010904//EN"
 "http://www.w3.org/TR/2001/REC-SVG-20010904/DTD/svg10.dtd">
<svg version="1.0" xmlns="http://www.w3.org/2000/svg"
 width="1024.000000pt" height="1024.000000pt" viewBox="0 0 1024.000000 1024.000000"
 preserveAspectRatio="xMidYMid meet">
<metadata>
Created by potrace 1.11, written by Peter Selinger 2001-2013
</metadata>
<g transform="translate(0.000000,1024.000000) scale(0.100000,-0.100000)"
fill="#000000" stroke="none">
<path d="M0 5120 l0 -5120 5120 0 5120 0 0 5120 0 5120 -5120 0 -5120 0 0
-5120z m2435 1860 c205 -44 383 -119 515 -219 77 -58 211 -195 259 -264 125
-183 210 -413 237 -649 l6 -58 -306 0 -306 0 -4 23 c-3 12 -12 61 -21 109 -58
315 -210 493 -480 564 -55 15 -106 19 -240 19 -150 0 -179 -3 -245 -23 -131
-41 -206 -87 -305 -186 -145 -145 -221 -313 -271 -601 -22 -121 -31 -705 -15
-883 22 -240 66 -405 150 -567 64 -125 192 -254 305 -309 147 -71 333 -92 537
-61 242 36 389 135 484 327 42 86 95 260 95 313 0 57 -14 55 317 55 l306 0 -7
-62 c-64 -569 -427 -979 -977 -1102 -360 -81 -742 -48 -1026 89 -128 61 -177
93 -285 183 -290 243 -473 643 -519 1133 -16 178 -7 741 15 874 120 747 536
1203 1193 1310 132 22 456 13 588 -15z m3210 0 c205 -44 383 -119 515 -219 77
-58 211 -195 259 -264 125 -183 210 -413 237 -649 l6 -58 -306 0 -306 0 -4 23
c-3 12 -12 61 -21 109 -58 315 -210 493 -480 564 -55 15 -106 19 -240 19 -150
0 -179 -3 -245 -23 -131 -41 -206 -87 -305 -186 -145 -145 -221 -313 -271
-601 -22 -121 -31 -705 -15 -883 22 -240 66 -405 150 -567 64 -125 192 -254
305 -309 147 -71 333 -92 537 -61 242 36 389 135 484 327 42 86 95 260 95 313
0 57 -14 55 317 55 l306 0 -7 -62 c-64 -569 -427 -979 -977 -1102 -360 -81
-742 -48 -1026 89 -128 61 -177 93 -285 183 -290 243 -473 643 -519 1133 -16
178 -7 741 15 874 120 747 536 1203 1193 1310 132 22 456 13 588 -15z m3036 9
c281 -48 501 -149 674 -310 185 -172 308 -422 322 -656 l6 -93 -307 0 -306 0
0 29 c0 62 -31 189 -62 251 -45 92 -142 187 -238 232 -125 60 -192 72 -380 72
-181 0 -263 -16 -378 -72 -258 -125 -335 -468 -150 -668 107 -116 295 -207
655 -319 443 -136 690 -260 884 -442 193 -182 280 -393 281 -678 0 -267 -74
-456 -247 -630 -164 -166 -406 -278 -690 -320 -593 -88 -1190 90 -1478 442
-146 179 -224 375 -230 578 l-2 80 305 0 305 0 7 -75 c24 -244 163 -420 397
-504 111 -39 195 -51 371 -51 125 0 185 5 245 18 285 66 436 266 397 528 -21
147 -84 242 -216 324 -107 67 -228 116 -543 221 -480 159 -693 268 -882 448
-91 88 -137 149 -190 253 -65 127 -83 212 -84 383 0 169 17 250 83 386 154
317 540 550 975 587 142 12 359 6 476 -14z"/>
</g>
</svg>
